<svg width="310" height="65" viewBox="0 0 310 65" fill="none" xmlns="http://www.w3.org/2000/svg">
<path d="M0 29.73V52.9367C0 55.7331 2.26692 58 5.06329 58H12.9747C15.7711 58 18.038 55.7331 18.038 52.9367V43.5633C18.038 40.7669 20.3049 38.5 23.1013 38.5H41.7722C44.5685 38.5 46.8354 36.2331 46.8354 33.4367V24.6667V16.5633C46.8354 13.7669 44.5685 11.5 41.7722 11.5H29.5633C26.7669 11.5 24.5 13.7669 24.5 16.5633V19.6034C24.5 22.3998 22.2331 24.6667 19.4367 24.6667H5.06329C2.26691 24.6667 0 26.9336 0 29.73Z" fill="#0EB268"/>
<path d="M72.9875 50.7947C70.1728 50.7947 67.7224 50.2815 65.6362 49.2549C63.5831 48.2284 61.9605 46.8045 60.7684 44.9832C59.5763 43.1619 58.8809 41.0426 58.6822 38.6253L64.1957 38.2776C64.4275 39.9333 64.9077 41.3407 65.6362 42.4997C66.3647 43.6255 67.3416 44.4865 68.5668 45.0826C69.8251 45.6455 71.3318 45.927 73.0869 45.927C74.6101 45.927 75.9016 45.7448 76.9612 45.3806C78.054 44.9832 78.8818 44.4037 79.4448 43.6421C80.0077 42.8805 80.2892 41.9533 80.2892 40.8605C80.2892 39.8671 80.0408 38.9896 79.5441 38.2279C79.0805 37.4332 78.1699 36.7213 76.8122 36.0921C75.4876 35.4298 73.5339 34.7841 70.951 34.1549C68.1363 33.4595 65.8846 32.6979 64.1957 31.87C62.5069 31.0422 61.2817 30.0157 60.5201 28.7904C59.7916 27.5321 59.4273 25.9923 59.4273 24.171C59.4273 22.1511 59.9075 20.3795 60.8678 18.8562C61.8612 17.2999 63.2685 16.0912 65.0898 15.2302C66.9111 14.3693 69.0966 13.9388 71.6464 13.9388C74.3286 13.9388 76.6135 14.4355 78.501 15.4289C80.4216 16.4223 81.9283 17.78 83.0211 19.5019C84.147 21.2239 84.8424 23.1942 85.1073 25.4128L79.5938 25.7108C79.4282 24.3531 79.0143 23.161 78.352 22.1345C77.6897 21.0749 76.7956 20.2636 75.6698 19.7006C74.5439 19.1046 73.1696 18.8065 71.5471 18.8065C69.494 18.8065 67.8714 19.2867 66.6793 20.247C65.5203 21.1742 64.9408 22.416 64.9408 23.9723C64.9408 24.9658 65.1726 25.8102 65.6362 26.5056C66.1329 27.1678 66.9939 27.7473 68.2191 28.2441C69.4774 28.7408 71.249 29.2706 73.5339 29.8335C76.5804 30.5289 78.9977 31.3899 80.7859 32.4164C82.6072 33.4098 83.8986 34.5854 84.6602 35.9431C85.4219 37.3008 85.8027 38.8406 85.8027 40.5625C85.8027 42.6487 85.2563 44.4699 84.1635 46.0263C83.1039 47.5496 81.6137 48.7251 79.6931 49.553C77.7725 50.3808 75.5373 50.7947 72.9875 50.7947ZM107.126 50.7947C103.716 50.7947 100.785 50.0662 98.3345 48.6092C95.8841 47.1191 93.9966 44.9998 92.672 42.2513C91.3475 39.5028 90.6852 36.2245 90.6852 32.4164C90.6852 28.6083 91.3475 25.33 92.672 22.5815C93.9966 19.8 95.8841 17.6641 98.3345 16.174C100.785 14.6838 103.716 13.9388 107.126 13.9388C110.57 13.9388 113.517 14.6838 115.968 16.174C118.451 17.6641 120.339 19.8 121.63 22.5815C122.955 25.33 123.617 28.6083 123.617 32.4164C123.617 36.2245 122.955 39.5028 121.63 42.2513C120.339 44.9998 118.451 47.1191 115.968 48.6092C113.517 50.0662 110.57 50.7947 107.126 50.7947ZM107.126 45.8773C109.411 45.8773 111.365 45.3475 112.988 44.2878C114.643 43.2282 115.902 41.7049 116.763 39.7181C117.623 37.6981 118.054 35.2642 118.054 32.4164C118.054 29.5686 117.623 27.1347 116.763 25.1148C115.902 23.0948 114.643 21.555 112.988 20.4954C111.365 19.4026 109.411 18.8562 107.126 18.8562C104.875 18.8562 102.937 19.4026 101.315 20.4954C99.6922 21.555 98.4339 23.0948 97.5398 25.1148C96.6788 27.1347 96.2483 29.5686 96.2483 32.4164C96.2483 35.2642 96.6788 37.6981 97.5398 39.7181C98.4339 41.7049 99.6922 43.2282 101.315 44.2878C102.937 45.3475 104.875 45.8773 107.126 45.8773ZM142.789 50.7947C139.974 50.7947 137.524 50.2815 135.438 49.2549C133.385 48.2284 131.762 46.8045 130.57 44.9832C129.378 43.1619 128.682 41.0426 128.484 38.6253L133.997 38.2776C134.229 39.9333 134.709 41.3407 135.438 42.4997C136.166 43.6255 137.143 44.4865 138.368 45.0826C139.627 45.6455 141.133 45.927 142.888 45.927C144.412 45.927 145.703 45.7448 146.763 45.3806C147.855 44.9832 148.683 44.4037 149.246 43.6421C149.809 42.8805 150.091 41.9533 150.091 40.8605C150.091 39.8671 149.842 38.9896 149.346 38.2279C148.882 37.4332 147.971 36.7213 146.614 36.0921C145.289 35.4298 143.335 34.7841 140.752 34.1549C137.938 33.4595 135.686 32.6979 133.997 31.87C132.308 31.0422 131.083 30.0157 130.322 28.7904C129.593 27.5321 129.229 25.9923 129.229 24.171C129.229 22.1511 129.709 20.3795 130.669 18.8562C131.663 17.2999 133.07 16.0912 134.891 15.2302C136.713 14.3693 138.898 13.9388 141.448 13.9388C144.13 13.9388 146.415 14.4355 148.302 15.4289C150.223 16.4223 151.73 17.78 152.823 19.5019C153.948 21.2239 154.644 23.1942 154.909 25.4128L149.395 25.7108C149.23 24.3531 148.816 23.161 148.153 22.1345C147.491 21.0749 146.597 20.2636 145.471 19.7006C144.345 19.1046 142.971 18.8065 141.349 18.8065C139.295 18.8065 137.673 19.2867 136.481 20.247C135.322 21.1742 134.742 22.416 134.742 23.9723C134.742 24.9658 134.974 25.8102 135.438 26.5056C135.934 27.1678 136.795 27.7473 138.021 28.2441C139.279 28.7408 141.051 29.2706 143.335 29.8335C146.382 30.5289 148.799 31.3899 150.587 32.4164C152.409 33.4098 153.7 34.5854 154.462 35.9431C155.223 37.3008 155.604 38.8406 155.604 40.5625C155.604 42.6487 155.058 44.4699 153.965 46.0263C152.905 47.5496 151.415 48.7251 149.495 49.553C147.574 50.3808 145.339 50.7947 142.789 50.7947Z" fill="#FEFEFD"/>
<path d="M161.845 50V14.7335H174.511C178.75 14.7335 181.945 15.4951 184.098 17.0184C186.25 18.5416 187.327 20.959 187.327 24.2704C187.327 25.7605 187.012 27.0685 186.383 28.1944C185.754 29.3203 184.826 30.2143 183.601 30.8766C182.409 31.5058 180.985 31.8369 179.329 31.87L179.28 31.6714C182.293 31.7376 184.628 32.5654 186.283 34.1549C187.972 35.7113 188.817 37.7643 188.817 40.3141C188.817 43.5262 187.74 45.9435 185.588 47.5661C183.436 49.1887 180.373 50 176.399 50H161.845ZM167.21 45.1819H176.25C178.469 45.1819 180.19 44.7349 181.416 43.8408C182.674 42.9136 183.303 41.5725 183.303 39.8174C183.303 38.0955 182.674 36.7544 181.416 35.7941C180.19 34.8338 178.469 34.3536 176.25 34.3536H167.21V45.1819ZM167.21 29.7839H174.412C176.763 29.7839 178.584 29.3368 179.876 28.4427C181.167 27.5487 181.813 26.2903 181.813 24.6677C181.813 22.9458 181.184 21.6709 179.926 20.8431C178.7 19.9821 176.862 19.5516 174.412 19.5516H167.21V29.7839ZM195.011 50V23.575H199.829L200.028 30.5786L199.581 30.4296C199.945 28.0454 200.674 26.3069 201.766 25.2141C202.892 24.1214 204.399 23.575 206.287 23.575H208.82V28.2937H206.287C204.962 28.2937 203.853 28.509 202.959 28.9394C202.064 29.3699 201.386 30.0322 200.922 30.9263C200.492 31.8204 200.276 32.9794 200.276 34.4033V50H195.011ZM213.153 50V23.575H218.418V50H213.153ZM213.053 19.7503V14.4852H218.517V19.7503H213.053ZM234.764 50.5961C232.513 50.5961 230.542 50.0331 228.854 48.9072C227.198 47.7814 225.923 46.1919 225.029 44.1388C224.168 42.0526 223.737 39.6022 223.737 36.7875C223.737 33.9728 224.184 31.5389 225.079 29.4858C225.973 27.3996 227.247 25.7936 228.903 24.6677C230.559 23.5419 232.513 22.9789 234.764 22.9789C236.586 22.9789 238.208 23.3597 239.632 24.1214C241.056 24.883 242.132 25.9426 242.861 27.3003V14.7335H248.126V50H243.208L243.059 46.0263C242.331 47.4502 241.222 48.5761 239.731 49.4039C238.274 50.1987 236.619 50.5961 234.764 50.5961ZM236.155 46.0263C237.579 46.0263 238.788 45.6621 239.781 44.9335C240.775 44.205 241.536 43.1454 242.066 41.7546C242.596 40.3638 242.861 38.7081 242.861 36.7875C242.861 34.8006 242.596 33.1284 242.066 31.7707C241.536 30.3799 240.775 29.3368 239.781 28.6414C238.788 27.9129 237.579 27.5487 236.155 27.5487C234.036 27.5487 232.347 28.3765 231.089 30.0322C229.83 31.6548 229.201 33.9066 229.201 36.7875C229.201 39.6353 229.83 41.8871 231.089 43.5428C232.347 45.1985 234.036 46.0263 236.155 46.0263ZM265.741 58.0467C263.655 58.0467 261.817 57.7321 260.227 57.103C258.638 56.4738 257.33 55.5797 256.303 54.4207C255.277 53.2949 254.581 51.9703 254.217 50.447L259.681 50.0993C260.045 51.1921 260.674 52.0531 261.569 52.6822C262.496 53.3445 263.887 53.6757 265.741 53.6757C267.926 53.6757 269.599 53.2121 270.758 52.2849C271.95 51.3577 272.546 49.9503 272.546 48.0628V44.2382C271.917 45.5958 270.907 46.672 269.516 47.4668C268.125 48.2615 266.569 48.6589 264.847 48.6589C262.628 48.6589 260.658 48.1125 258.936 47.0197C257.214 45.927 255.873 44.4203 254.913 42.4997C253.952 40.579 253.472 38.3604 253.472 35.8437C253.472 33.2939 253.936 31.0587 254.863 29.1381C255.823 27.2175 257.148 25.7108 258.837 24.6181C260.559 23.5253 262.496 22.9789 264.648 22.9789C266.536 22.9789 268.191 23.4094 269.615 24.2704C271.072 25.1313 272.115 26.2903 272.745 27.7473V23.575H277.811V47.9138C277.811 50.0993 277.314 51.9372 276.321 53.4273C275.361 54.9506 273.97 56.093 272.148 56.8546C270.36 57.6494 268.224 58.0467 265.741 58.0467ZM265.691 44.1885C267.744 44.1885 269.383 43.4434 270.609 41.9533C271.867 40.4631 272.513 38.4101 272.546 35.7941C272.579 34.0721 272.314 32.5986 271.751 31.3733C271.188 30.115 270.377 29.1547 269.317 28.4924C268.291 27.797 267.082 27.4493 265.691 27.4493C263.539 27.4493 261.867 28.2109 260.674 29.7342C259.515 31.2243 258.936 33.2443 258.936 35.7941C258.936 38.377 259.532 40.43 260.724 41.9533C261.949 43.4434 263.605 44.1885 265.691 44.1885ZM295.676 50.5961C293.093 50.5961 290.857 50.0331 288.97 48.9072C287.116 47.7814 285.675 46.1753 284.649 44.0891C283.655 42.003 283.158 39.5691 283.158 36.7875C283.158 34.0059 283.655 31.5886 284.649 29.5355C285.675 27.4493 287.116 25.8433 288.97 24.7174C290.824 23.5584 293.01 22.9789 295.526 22.9789C297.911 22.9789 300.013 23.5419 301.835 24.6677C303.656 25.7605 305.063 27.35 306.057 29.4362C307.083 31.5223 307.597 34.039 307.597 36.9862V38.3273H288.622C288.755 40.9102 289.434 42.8474 290.659 44.1388C291.917 45.4303 293.606 46.076 295.725 46.076C297.282 46.076 298.573 45.7117 299.6 44.9832C300.626 44.2547 301.338 43.2778 301.735 42.0526L307.199 42.4003C306.504 44.8508 305.13 46.8376 303.077 48.3609C301.057 49.851 298.59 50.5961 295.676 50.5961ZM288.622 34.3536H302.033C301.868 32.0025 301.189 30.264 299.997 29.1381C298.838 28.0123 297.348 27.4493 295.526 27.4493C293.639 27.4493 292.083 28.0454 290.857 29.2375C289.665 30.3965 288.92 32.1018 288.622 34.3536Z" fill="#0EB268"/>
</svg>
